<mxfile host="65bd71144e">
    <diagram id="RgxYJvR7K6JR6Plrnf-w" name="Page-1">
        <mxGraphModel dx="1829" dy="672" grid="1" gridSize="10" guides="1" tooltips="1" connect="1" arrows="1" fold="1" page="1" pageScale="1" pageWidth="850" pageHeight="1100" math="0" shadow="0">
            <root>
                <mxCell id="0"/>
                <mxCell id="1" parent="0"/>
                <mxCell id="30" value="" style="edgeStyle=none;html=1;fontSize=16;endArrow=ERmany;endFill=0;exitX=0.75;exitY=1;exitDx=0;exitDy=0;entryX=0.5;entryY=0;entryDx=0;entryDy=0;" edge="1" parent="1" source="27" target="2">
                    <mxGeometry relative="1" as="geometry">
                        <mxPoint x="420" y="140" as="targetPoint"/>
                    </mxGeometry>
                </mxCell>
                <mxCell id="2" value="&lt;b&gt;ID (UK)&lt;br&gt;&lt;/b&gt;&lt;b&gt;&lt;br&gt;Keuken_ID&lt;br&gt;Type_ID&lt;br&gt;&lt;/b&gt;&lt;b&gt;&lt;br&gt;&lt;/b&gt;Afbeelding&lt;br&gt;" style="whiteSpace=wrap;html=1;align=left;labelPosition=center;verticalLabelPosition=middle;verticalAlign=top;fontStyle=0" vertex="1" parent="1">
                    <mxGeometry x="320" y="200" width="170" height="110" as="geometry"/>
                </mxCell>
                <mxCell id="3" value="RECEPT" style="text;strokeColor=none;align=center;fillColor=none;html=1;verticalAlign=middle;whiteSpace=wrap;rounded=0;fontStyle=1;fontSize=16;" vertex="1" parent="1">
                    <mxGeometry x="320" y="170" width="60" height="30" as="geometry"/>
                </mxCell>
                <mxCell id="4" value="&lt;b&gt;ID&lt;br&gt;&lt;br&gt;&lt;/b&gt;Recept_ID&lt;br&gt;Artikel_ID&lt;br&gt;Hoeveelheid" style="whiteSpace=wrap;html=1;align=left;labelPosition=center;verticalLabelPosition=middle;verticalAlign=top;fontStyle=0" vertex="1" parent="1">
                    <mxGeometry x="85" y="380" width="170" height="130" as="geometry"/>
                </mxCell>
                <mxCell id="8" value="Ingredienten" style="text;strokeColor=none;align=left;fillColor=none;html=1;verticalAlign=middle;whiteSpace=wrap;rounded=0;fontStyle=1;fontSize=16;" vertex="1" parent="1">
                    <mxGeometry x="85" y="350" width="200" height="30" as="geometry"/>
                </mxCell>
                <mxCell id="9" value="Opmerkingen" style="text;strokeColor=none;align=left;fillColor=none;html=1;verticalAlign=middle;whiteSpace=wrap;rounded=0;fontStyle=1;fontSize=16;" vertex="1" parent="1">
                    <mxGeometry x="425" y="350" width="200" height="30" as="geometry"/>
                </mxCell>
                <mxCell id="12" value="&lt;b&gt;ID&lt;br&gt;&lt;br&gt;&lt;/b&gt;Gebruikersnaam&lt;br&gt;Wachtwoord&lt;br&gt;Email" style="whiteSpace=wrap;html=1;align=left;labelPosition=center;verticalLabelPosition=middle;verticalAlign=top;fontStyle=0" vertex="1" parent="1">
                    <mxGeometry x="640" y="380" width="170" height="130" as="geometry"/>
                </mxCell>
                <mxCell id="13" value="Gebruiker" style="text;strokeColor=none;align=left;fillColor=none;html=1;verticalAlign=middle;whiteSpace=wrap;rounded=0;fontStyle=1;fontSize=16;" vertex="1" parent="1">
                    <mxGeometry x="640" y="350" width="230" height="30" as="geometry"/>
                </mxCell>
                <mxCell id="26" value="" style="edgeStyle=none;html=1;fontSize=16;entryX=1;entryY=0.5;entryDx=0;entryDy=0;endArrow=ERmany;endFill=0;exitX=0;exitY=0.5;exitDx=0;exitDy=0;" edge="1" parent="1" source="12" target="42">
                    <mxGeometry relative="1" as="geometry">
                        <mxPoint x="310" y="520" as="sourcePoint"/>
                        <mxPoint x="310" y="630" as="targetPoint"/>
                    </mxGeometry>
                </mxCell>
                <mxCell id="27" value="ID&lt;br&gt;Keuken" style="whiteSpace=wrap;html=1;align=left;verticalAlign=top;fontStyle=0;" vertex="1" parent="1">
                    <mxGeometry x="270" y="40" width="120" height="60" as="geometry"/>
                </mxCell>
                <mxCell id="29" value="Keuken" style="text;strokeColor=none;align=center;fillColor=none;html=1;verticalAlign=middle;whiteSpace=wrap;rounded=0;fontStyle=1;fontSize=16;" vertex="1" parent="1">
                    <mxGeometry x="270" y="10" width="60" height="30" as="geometry"/>
                </mxCell>
                <mxCell id="33" value="ID&lt;br&gt;Type" style="whiteSpace=wrap;html=1;align=left;verticalAlign=top;fontStyle=0;" vertex="1" parent="1">
                    <mxGeometry x="390" y="40" width="120" height="60" as="geometry"/>
                </mxCell>
                <mxCell id="34" value="Type" style="text;strokeColor=none;align=center;fillColor=none;html=1;verticalAlign=middle;whiteSpace=wrap;rounded=0;fontStyle=1;fontSize=16;" vertex="1" parent="1">
                    <mxGeometry x="390" y="10" width="60" height="30" as="geometry"/>
                </mxCell>
                <mxCell id="35" value="" style="edgeStyle=none;html=1;fontSize=16;endArrow=ERmany;endFill=0;entryX=0.75;entryY=0;entryDx=0;entryDy=0;exitX=0.5;exitY=1;exitDx=0;exitDy=0;" edge="1" target="2" parent="1" source="33">
                    <mxGeometry relative="1" as="geometry">
                        <mxPoint x="405" y="140" as="sourcePoint"/>
                    </mxGeometry>
                </mxCell>
                <mxCell id="38" value="" style="edgeStyle=none;html=1;fontSize=16;endArrow=ERmany;endFill=0;exitX=0;exitY=0.75;exitDx=0;exitDy=0;entryX=0.5;entryY=1;entryDx=0;entryDy=0;" edge="1" parent="1" source="2" target="8">
                    <mxGeometry relative="1" as="geometry">
                        <mxPoint x="202.70270270270248" y="259.9999999999999" as="sourcePoint"/>
                        <mxPoint x="162.16216216216208" y="159.9999999999999" as="targetPoint"/>
                        <Array as="points"/>
                    </mxGeometry>
                </mxCell>
                <mxCell id="39" value="" style="edgeStyle=none;html=1;fontSize=16;endArrow=ERmany;endFill=0;exitX=0.5;exitY=1;exitDx=0;exitDy=0;entryX=0.5;entryY=1;entryDx=0;entryDy=0;" edge="1" target="45" parent="1" source="2">
                    <mxGeometry relative="1" as="geometry">
                        <mxPoint x="424.9999999999998" y="305" as="sourcePoint"/>
                        <mxPoint x="267.1621621621621" y="209.9999999999999" as="targetPoint"/>
                        <Array as="points"/>
                    </mxGeometry>
                </mxCell>
                <mxCell id="40" value="&lt;b&gt;ID&lt;br&gt;&lt;/b&gt;&lt;br&gt;Recept_ID&lt;br&gt;stap nr&lt;br&gt;beschrijving" style="whiteSpace=wrap;html=1;align=left;labelPosition=center;verticalLabelPosition=middle;verticalAlign=top;fontStyle=0" vertex="1" parent="1">
                    <mxGeometry x="255" y="380" width="170" height="130" as="geometry"/>
                </mxCell>
                <mxCell id="41" value="" style="edgeStyle=none;html=1;fontSize=16;endArrow=ERmany;endFill=0;exitX=1;exitY=1;exitDx=0;exitDy=0;entryX=0.75;entryY=1;entryDx=0;entryDy=0;" edge="1" target="9" parent="1" source="2">
                    <mxGeometry relative="1" as="geometry">
                        <mxPoint x="664.9999999999998" y="255" as="sourcePoint"/>
                        <mxPoint x="507.1621621621621" y="159.9999999999999" as="targetPoint"/>
                        <Array as="points"/>
                    </mxGeometry>
                </mxCell>
                <mxCell id="42" value="&lt;b&gt;ID&lt;br&gt;&lt;br&gt;&lt;/b&gt;Recept_ID&lt;br&gt;Gebruiker_ID&lt;br&gt;Opmerking" style="whiteSpace=wrap;html=1;align=left;labelPosition=center;verticalLabelPosition=middle;verticalAlign=top;fontStyle=0" vertex="1" parent="1">
                    <mxGeometry x="425" y="380" width="170" height="130" as="geometry"/>
                </mxCell>
                <mxCell id="43" value="" style="edgeStyle=none;html=1;fontSize=16;endArrow=ERmany;endFill=0;exitX=1;exitY=0.5;exitDx=0;exitDy=0;entryX=0;entryY=0.5;entryDx=0;entryDy=0;" edge="1" source="2" parent="1" target="44">
                    <mxGeometry relative="1" as="geometry">
                        <mxPoint x="245" y="330" as="sourcePoint"/>
                        <mxPoint x="560" y="220" as="targetPoint"/>
                    </mxGeometry>
                </mxCell>
                <mxCell id="44" value="&lt;b&gt;ID&lt;br&gt;&lt;br&gt;&lt;/b&gt;Gebruiker_ID&lt;br&gt;Recept_ID" style="whiteSpace=wrap;html=1;align=left;labelPosition=center;verticalLabelPosition=middle;verticalAlign=top;fontStyle=0" vertex="1" parent="1">
                    <mxGeometry x="640" y="190" width="170" height="130" as="geometry"/>
                </mxCell>
                <mxCell id="45" value="Bereidingswijze" style="text;strokeColor=none;align=left;fillColor=none;html=1;verticalAlign=middle;whiteSpace=wrap;rounded=0;fontStyle=1;fontSize=16;" vertex="1" parent="1">
                    <mxGeometry x="255" y="350" width="230" height="30" as="geometry"/>
                </mxCell>
                <mxCell id="46" value="" style="edgeStyle=none;html=1;fontSize=16;entryX=0.5;entryY=1;entryDx=0;entryDy=0;endArrow=ERmany;endFill=0;exitX=0.5;exitY=0;exitDx=0;exitDy=0;" edge="1" parent="1" source="12" target="44">
                    <mxGeometry relative="1" as="geometry">
                        <mxPoint x="1020" y="340" as="sourcePoint"/>
                        <mxPoint x="870" y="340" as="targetPoint"/>
                    </mxGeometry>
                </mxCell>
                <mxCell id="48" value="&lt;b&gt;ID&lt;br&gt;&lt;br&gt;&lt;/b&gt;Gebruiker_ID&lt;br&gt;Artikel_ID&lt;br&gt;Aantal" style="whiteSpace=wrap;html=1;align=left;labelPosition=center;verticalLabelPosition=middle;verticalAlign=top;fontStyle=0" vertex="1" parent="1">
                    <mxGeometry x="80" y="170" width="170" height="130" as="geometry"/>
                </mxCell>
                <mxCell id="49" value="Boodschappenlijst" style="text;strokeColor=none;align=left;fillColor=none;html=1;verticalAlign=middle;whiteSpace=wrap;rounded=0;fontStyle=1;fontSize=16;" vertex="1" parent="1">
                    <mxGeometry x="80" y="140" width="200" height="30" as="geometry"/>
                </mxCell>
                <mxCell id="53" value="&lt;b&gt;ID&lt;br&gt;&lt;br&gt;&lt;/b&gt;Artikel&lt;br&gt;Afbeelding&lt;br&gt;Beschrijving&lt;br&gt;Hoeveelheid&lt;br&gt;eenheid&lt;br&gt;artikel prijs&lt;br&gt;calorieen" style="whiteSpace=wrap;html=1;align=left;labelPosition=center;verticalLabelPosition=middle;verticalAlign=top;fontStyle=0" vertex="1" parent="1">
                    <mxGeometry x="-200" y="285" width="170" height="145" as="geometry"/>
                </mxCell>
                <mxCell id="54" value="Artikelen" style="text;strokeColor=none;align=left;fillColor=none;html=1;verticalAlign=middle;whiteSpace=wrap;rounded=0;fontStyle=1;fontSize=16;" vertex="1" parent="1">
                    <mxGeometry x="-200" y="255" width="200" height="30" as="geometry"/>
                </mxCell>
                <mxCell id="56" value="" style="edgeStyle=none;html=1;fontSize=16;endArrow=ERmany;endFill=0;exitX=1;exitY=0.75;exitDx=0;exitDy=0;entryX=0;entryY=0.5;entryDx=0;entryDy=0;" edge="1" parent="1" source="53" target="4">
                    <mxGeometry relative="1" as="geometry">
                        <mxPoint x="-55" y="479.9999999999999" as="sourcePoint"/>
                        <mxPoint x="30" y="370" as="targetPoint"/>
                        <Array as="points"/>
                    </mxGeometry>
                </mxCell>
                <mxCell id="57" value="&lt;b&gt;ID&lt;br&gt;&lt;br&gt;&lt;/b&gt;Titel&lt;br&gt;Beschrijving&lt;br&gt;Datum" style="whiteSpace=wrap;html=1;align=left;labelPosition=center;verticalLabelPosition=middle;verticalAlign=top;fontStyle=0" vertex="1" parent="1">
                    <mxGeometry x="-200" y="55" width="170" height="105" as="geometry"/>
                </mxCell>
                <mxCell id="58" value="Agenda" style="text;strokeColor=none;align=left;fillColor=none;html=1;verticalAlign=middle;whiteSpace=wrap;rounded=0;fontStyle=1;fontSize=16;" vertex="1" parent="1">
                    <mxGeometry x="-200" y="25" width="200" height="30" as="geometry"/>
                </mxCell>
                <mxCell id="60" value="" style="edgeStyle=none;html=1;fontSize=16;entryX=0;entryY=1;entryDx=0;entryDy=0;endArrow=ERmany;endFill=0;exitX=1;exitY=0;exitDx=0;exitDy=0;" edge="1" parent="1" source="2" target="62">
                    <mxGeometry relative="1" as="geometry">
                        <mxPoint x="882.5" y="93.81999999999994" as="sourcePoint"/>
                        <mxPoint x="732.5" y="93.81999999999994" as="targetPoint"/>
                    </mxGeometry>
                </mxCell>
                <mxCell id="61" value="Waardering" style="text;strokeColor=none;align=center;fillColor=none;html=1;verticalAlign=middle;whiteSpace=wrap;rounded=0;fontStyle=1;fontSize=16;" vertex="1" parent="1">
                    <mxGeometry x="567.5" y="10" width="60" height="30" as="geometry"/>
                </mxCell>
                <mxCell id="62" value="&lt;b&gt;ID&lt;br&gt;Recept_ID (UK)&lt;br&gt;&lt;/b&gt;Waardering&lt;b&gt;&lt;br&gt;&lt;br&gt;&lt;/b&gt;" style="whiteSpace=wrap;html=1;align=left;labelPosition=center;verticalLabelPosition=middle;verticalAlign=top;fontStyle=0" vertex="1" parent="1">
                    <mxGeometry x="567.5" y="40" width="170" height="70" as="geometry"/>
                </mxCell>
                <mxCell id="63" value="Favorieten" style="text;strokeColor=none;align=center;fillColor=none;html=1;verticalAlign=middle;whiteSpace=wrap;rounded=0;fontStyle=1;fontSize=16;" vertex="1" parent="1">
                    <mxGeometry x="640" y="160" width="60" height="30" as="geometry"/>
                </mxCell>
            </root>
        </mxGraphModel>
    </diagram>
</mxfile>